<?xml version="1.0" encoding="utf-8"?>
<!-- Generator: Adobe Illustrator 26.2.1, SVG Export Plug-In . SVG Version: 6.00 Build 0)  -->
<svg version="1.1" id="图层_1" xmlns="http://www.w3.org/2000/svg" xmlns:xlink="http://www.w3.org/1999/xlink" x="0px" y="0px"
	 viewBox="0 0 512 512" style="enable-background:new 0 0 512 512;" xml:space="preserve">
<style type="text/css">
	.st0{fill:#F6F6F6;fill-opacity:0;}
	.st1{fill:#F6F6F6;}
	.st2{fill:#656565;}
	.st3{fill:#BFBFBF;}
	.st4{fill:#AA314D;}
	.st5{fill:#FFFFFF;}
</style>
<path id="canvas" class="st0" d="M511.5,512h-512V0h512V512z"/>
<g id="iconBg">
	<path class="st1" d="M415.5,128.1V464h-304V48h224.8L415.5,128.1z"/>
	<path class="st2" d="M343.1,32H95.5v448h336V121.6L343.1,32z M335.5,48h0.8l79,80h-79.9V48z M415.5,464h-304V48h208v96h96V464z"/>
</g>
<path id="iconFg" class="st3" d="M271.5,112h-128V96h128V112z M271.5,144h-128v16h128V144z M383.5,192h-240v16h240V192z M383.5,240
	h-240v16h240V240z M383.5,288h-240v16h240V288z M383.5,336h-240v16h240V336z M383.5,384h-240v16h240V384z"/>
<g>
	<circle class="st4" cx="361.5" cy="360.8" r="130"/>
	<g>
		<path class="st5" d="M394.1,399.9c-5.6,4.7-12.3,8.2-19.7,10.2c-3,7.6-4.6,15.9-4.6,24.5c0,2.7,0.2,5.3,0.4,7.8
			c18.1-1.9,34.4-9.7,47-21.4C411.3,412.3,403.4,405.1,394.1,399.9z"/>
		<path class="st5" d="M437.4,367c-9.4,0-18.2,1.9-26.3,5.3c-1.4,6-3.8,11.5-7.2,16.5c9,5.5,17,12.7,23.3,21.1
			c9-12.1,14.9-26.7,16.1-42.6C441.4,367.1,439.4,367,437.4,367z"/>
		<path class="st5" d="M329,400c-9.3,5.1-17.3,12.4-23.2,21.1c13.3,12.4,30.7,20.3,49.9,21.6c-0.3-2.7-0.4-5.4-0.4-8.1
			c0-8,1.1-15.7,3.3-23C347.3,411,337.1,406.8,329,400z"/>
		<path class="st5" d="M295.7,410c6.3-8.4,14.2-15.6,23.3-21.1c-5.3-8-8.4-17.7-8.4-28.1c0-0.1,0-0.2,0-0.4
			c-10.6,0.5-21.2,3.4-30.8,8.9C281.4,384.5,287.1,398.5,295.7,410z"/>
		<path class="st5" d="M346,312.2c6.6-2.1,11.1-8,11.1-15c0-10.4-10.1-18.1-20.1-15c-31.1,9.7-54.3,37.3-57.4,70.8
			c10.5-4.8,21.8-7.2,33.1-7.3C317.7,329.9,330.2,317.3,346,312.2z"/>
		<path class="st5" d="M412.3,356.4c7.9-2.6,16.4-4,25.2-4c2,0,4,0.1,5.8,0.2c-4-40.2-36.9-72.1-77.8-73.9l18.7,15.9l-18.7,15.4
			C390.3,311.9,410.2,331.7,412.3,356.4z"/>
	</g>
	<circle class="st4" cx="395.6" cy="295.9" r="6.2"/>
</g>
<g>
	<path class="st5" d="M361.5,230.8c34.7,0,67.4,13.5,91.9,38.1c24.6,24.6,38.1,57.2,38.1,91.9s-13.5,67.4-38.1,91.9
		c-24.6,24.6-57.2,38.1-91.9,38.1s-67.4-13.5-91.9-38.1c-24.6-24.6-38.1-57.2-38.1-91.9s13.5-67.4,38.1-91.9
		C294.1,244.3,326.8,230.8,361.5,230.8 M361.5,210.8c-82.8,0-150,67.2-150,150s67.2,150,150,150s150-67.2,150-150
		S444.4,210.8,361.5,210.8L361.5,210.8z"/>
</g>
</svg>
