<?xml version="1.0" encoding="utf-8"?>
<!-- Generator: Adobe Illustrator 26.2.1, SVG Export Plug-In . SVG Version: 6.00 Build 0)  -->
<svg version="1.1" id="图层_1" focusable="false" xmlns="http://www.w3.org/2000/svg" xmlns:xlink="http://www.w3.org/1999/xlink"
	 x="0px" y="0px" viewBox="0 0 36 36" style="enable-background:new 0 0 36 36;" xml:space="preserve">
<style type="text/css">
	.st0{fill:#DDDDDD;stroke:#000000;stroke-width:2;stroke-miterlimit:10;}
</style>
<circle class="st0" cx="18" cy="18" r="17"/>
<g>
	<path d="M21.7,23.8L21,21.9h-6.1l-0.7,1.9c-0.3,0.8-0.5,1.3-0.7,1.5c-0.2,0.3-0.5,0.4-1,0.4c-0.4,0-0.7-0.1-1-0.4s-0.4-0.6-0.4-1
		c0-0.2,0-0.4,0.1-0.6s0.2-0.5,0.3-0.9l3.8-9.8c0.1-0.3,0.2-0.6,0.4-1c0.2-0.4,0.3-0.7,0.5-1c0.2-0.3,0.4-0.5,0.7-0.6
		c0.3-0.2,0.6-0.2,1.1-0.2c0.4,0,0.8,0.1,1.1,0.2c0.3,0.2,0.5,0.4,0.7,0.6c0.2,0.3,0.3,0.5,0.4,0.8c0.1,0.3,0.3,0.7,0.5,1.2l3.9,9.7
		c0.3,0.7,0.5,1.3,0.5,1.6c0,0.3-0.1,0.7-0.4,1c-0.3,0.3-0.6,0.4-1.1,0.4c-0.2,0-0.4,0-0.6-0.1c-0.2-0.1-0.3-0.2-0.4-0.3
		c-0.1-0.1-0.2-0.4-0.4-0.7C21.9,24.3,21.8,24,21.7,23.8z M15.7,19.6h4.5l-2.3-6.2L15.7,19.6z"/>
</g>
</svg>
