<?xml version="1.0" encoding="utf-8"?>
<!-- Generator: Adobe Illustrator 26.2.1, SVG Export Plug-In . SVG Version: 6.00 Build 0)  -->
<svg version="1.1" id="图层_1" focusable="false" xmlns="http://www.w3.org/2000/svg" xmlns:xlink="http://www.w3.org/1999/xlink"
	 x="0px" y="0px" viewBox="0 0 36 36" style="enable-background:new 0 0 36 36;" xml:space="preserve">
<style type="text/css">
	.st0{fill:#DDDDDD;stroke:#000000;stroke-width:2;stroke-miterlimit:10;}
</style>
<circle class="st0" cx="18" cy="18" r="17"/>
<g>
	<path d="M23,23.1c0.4,0.3,0.9,0.6,1.5,0.9c0.5,0.3,0.9,0.5,1,0.7c0.2,0.2,0.3,0.4,0.3,0.7c0,0.2-0.1,0.4-0.3,0.7
		c-0.2,0.2-0.4,0.3-0.7,0.3c-0.2,0-0.5-0.1-0.8-0.2c-0.3-0.2-0.7-0.4-1.2-0.7s-0.9-0.6-1.5-1c-1,0.5-2.2,0.8-3.7,0.8
		c-1.2,0-2.2-0.2-3.1-0.6c-0.9-0.4-1.7-0.9-2.3-1.6c-0.6-0.7-1.1-1.5-1.4-2.5c-0.3-1-0.5-2-0.5-3.1c0-1.2,0.2-2.2,0.5-3.2
		s0.8-1.8,1.4-2.5s1.4-1.2,2.3-1.6c0.9-0.4,1.9-0.5,3.1-0.5c1.6,0,2.9,0.3,4,0.9c1.1,0.6,2,1.5,2.5,2.7c0.6,1.2,0.9,2.5,0.9,4.1
		C25,19.8,24.3,21.7,23,23.1z M20.6,21.4c0.4-0.5,0.7-1.1,0.9-1.7c0.2-0.7,0.3-1.4,0.3-2.3c0-1.1-0.2-2.1-0.5-2.9
		c-0.4-0.8-0.9-1.4-1.5-1.8s-1.4-0.6-2.3-0.6c-0.6,0-1.2,0.1-1.7,0.3c-0.5,0.2-1,0.6-1.3,1s-0.7,1-0.9,1.7c-0.2,0.7-0.3,1.4-0.3,2.3
		c0,1.7,0.4,3.1,1.2,4c0.8,0.9,1.8,1.4,3.1,1.4c0.5,0,1-0.1,1.6-0.3c-0.3-0.2-0.7-0.5-1.2-0.7s-0.8-0.4-1-0.6
		c-0.2-0.1-0.3-0.3-0.3-0.6c0-0.2,0.1-0.4,0.3-0.5c0.2-0.2,0.4-0.2,0.6-0.2C18.1,19.9,19.2,20.4,20.6,21.4z"/>
</g>
</svg>
