<?xml version="1.0" encoding="utf-8"?>
<!-- Generator: Adobe Illustrator 26.2.1, SVG Export Plug-In . SVG Version: 6.00 Build 0)  -->
<svg version="1.1" id="图层_1" xmlns="http://www.w3.org/2000/svg" xmlns:xlink="http://www.w3.org/1999/xlink" x="0px" y="0px"
	 viewBox="0 0 256 256" style="enable-background:new 0 0 256 256;" xml:space="preserve">
<style type="text/css">
	.st0{fill:#AA314D;}
	.st1{display:none;}
	.st2{display:inline;fill:none;}
	.st3{display:inline;fill:#FFFFFF;}
	.st4{fill:#FFFFFF;}
</style>
<circle class="st0" cx="128" cy="128" r="125"/>
<g class="st1">
	<path class="st2" d="M129.5,202.9c42.2,2.6,77.1-32.2,74.4-74.4c-2.3-35.3-31.1-63.6-66.4-65.3C113.7,62,92.4,72.8,78.9,90l52.1,52
		L78.9,89.9c-9.7,12.4-15.4,28.2-14.8,45.3C65.2,171.1,93.7,200.6,129.5,202.9z"/>
	<path class="st3" d="M135.8,33c-31.4-0.5-58.5,12.4-77.2,34.5L84,61l-4.1,27.9c13.5-17.2,33.8-26.9,57.6-25.8
		c35.3,1.7,64.1,30,66.4,65.3c2.7,42.3-32.1,77.1-74.3,74.4c-35.8-2.2-64.4-31.8-65.5-67.6c-0.4-13.1,2.8-25.3,8.6-35.9
		c3.3-5.9,2.4-13.3-2.4-18l0,0c-7.1-7.1-19-5.3-23.8,3.4c-8,14.5-12.6,31.3-12.4,49.2c0.5,54.9,45.8,99.6,100.7,99.1
		c55.6-0.4,100.3-46.1,99.3-102C232.9,77.5,189.3,34,135.8,33z"/>
</g>
<g>
	<path class="st4" d="M159.3,165.6c-5.4,4.5-11.8,7.9-18.9,9.8c-2.9,7.3-4.4,15.3-4.4,23.6c0,2.6,0.2,5.1,0.4,7.5
		c17.4-1.8,33.1-9.3,45.2-20.6C175.9,177.5,168.3,170.6,159.3,165.6z"/>
	<path class="st4" d="M201,134c-9,0-17.5,1.8-25.3,5.1c-1.3,5.8-3.7,11.1-6.9,15.9c8.7,5.3,16.3,12.2,22.4,20.3
		c8.7-11.6,14.3-25.7,15.5-41C204.8,134.1,202.9,134,201,134z"/>
	<path class="st4" d="M96.7,165.7c-8.9,4.9-16.6,11.9-22.3,20.3c12.8,11.9,29.5,19.5,48,20.8c-0.3-2.6-0.4-5.2-0.4-7.8
		c0-7.7,1.1-15.1,3.2-22.1C114.3,176.3,104.5,172.2,96.7,165.7z"/>
	<path class="st4" d="M64.7,175.3c6.1-8.1,13.7-15,22.4-20.3c-5.1-7.7-8.1-17-8.1-27c0-0.1,0-0.2,0-0.4c-10.2,0.5-20.4,3.3-29.6,8.6
		C51,150.8,56.4,164.2,64.7,175.3z"/>
	<path class="st4" d="M113.1,81.3c6.3-2,10.7-7.7,10.7-14.4c0-10-9.7-17.4-19.3-14.4c-29.9,9.3-52.2,35.9-55.2,68.1
		c10.1-4.6,21-6.9,31.8-7C85.9,98.3,97.9,86.2,113.1,81.3z"/>
	<path class="st4" d="M176.8,123.8c7.6-2.5,15.8-3.8,24.2-3.8c1.9,0,3.8,0.1,5.6,0.2c-3.8-38.7-35.5-69.3-74.8-71.1l18,15.3
		l-18,14.8C155.7,81,174.8,100,176.8,123.8z"/>
</g>
<circle class="st0" cx="160.8" cy="65.6" r="6"/>
</svg>
