<?xml version="1.0" encoding="utf-8"?>
<!-- Generator: Adobe Illustrator 24.1.2, SVG Export Plug-In . SVG Version: 6.00 Build 0)  -->
<svg version="1.1" id="图层_1" xmlns="http://www.w3.org/2000/svg" xmlns:xlink="http://www.w3.org/1999/xlink" x="0px" y="0px"
	 viewBox="0 0 256 256" style="enable-background:new 0 0 256 256;" xml:space="preserve">
<style type="text/css">
	.st0{fill:url(#SVGID_1_);}
	.st1{font-family:'DejaVuSansMono';}
	.st2{font-size:200px;}
</style>
<g>
	<radialGradient id="SVGID_1_" cx="128" cy="128" r="124.5" gradientUnits="userSpaceOnUse">
		<stop  offset="0" style="stop-color:#FFFFFF"/>
		<stop  offset="0.0851" style="stop-color:#FFEDD8"/>
		<stop  offset="0.2082" style="stop-color:#FFD5A7"/>
		<stop  offset="0.3345" style="stop-color:#FFC17D"/>
		<stop  offset="0.462" style="stop-color:#FFB05B"/>
		<stop  offset="0.591" style="stop-color:#FFA340"/>
		<stop  offset="0.7222" style="stop-color:#FF9A2D"/>
		<stop  offset="0.8568" style="stop-color:#FF9522"/>
		<stop  offset="1" style="stop-color:#FF931E"/>
	</radialGradient>
	<circle class="st0" cx="128" cy="128" r="124.5"/>
	<path d="M128,4c33.12,0,64.26,12.9,87.68,36.32S252,94.88,252,128s-12.9,64.26-36.32,87.68S161.12,252,128,252
		s-64.26-12.9-87.68-36.32S4,161.12,4,128s12.9-64.26,36.32-87.68S94.88,4,128,4 M128,3C58.96,3,3,58.96,3,128s55.96,125,125,125
		s125-55.96,125-125S197.04,3,128,3L128,3z"/>
</g>
<text transform="matrix(1 0 0 1 67.7949 195.9976)" class="st1 st2">R</text>
</svg>
