<?xml version="1.0" encoding="utf-8"?>
<!-- Generator: Adobe Illustrator 26.2.1, SVG Export Plug-In . SVG Version: 6.00 Build 0)  -->
<svg version="1.1" id="图层_1" focusable="false" xmlns="http://www.w3.org/2000/svg" xmlns:xlink="http://www.w3.org/1999/xlink"
	 x="0px" y="0px" viewBox="0 0 36 36" style="enable-background:new 0 0 36 36;" xml:space="preserve">
<style type="text/css">
	.st0{fill:#D6EAF8;stroke:#000000;stroke-width:2;stroke-miterlimit:10;}
</style>
<circle class="st0" cx="18" cy="18" r="17"/>
<g>
	<path d="M15.9,19h-1.1v4.8c0,0.6-0.1,1.1-0.4,1.4c-0.3,0.3-0.6,0.5-1.1,0.5c-0.5,0-0.9-0.2-1.1-0.5c-0.3-0.3-0.4-0.8-0.4-1.4V12.2
		c0-0.7,0.1-1.1,0.4-1.4s0.8-0.4,1.4-0.4h5c0.7,0,1.3,0,1.8,0.1c0.5,0.1,0.9,0.2,1.3,0.4c0.5,0.2,0.9,0.5,1.3,0.9s0.6,0.8,0.8,1.3
		c0.2,0.5,0.3,1,0.3,1.6c0,1.1-0.3,2-0.9,2.7c-0.6,0.7-1.6,1.1-2.9,1.4c0.5,0.3,1.1,0.7,1.5,1.3c0.5,0.6,0.9,1.2,1.3,1.8
		c0.4,0.6,0.7,1.2,0.9,1.7c0.2,0.5,0.3,0.9,0.3,1.1c0,0.2-0.1,0.4-0.2,0.6c-0.1,0.2-0.3,0.3-0.5,0.5c-0.2,0.1-0.5,0.2-0.8,0.2
		c-0.3,0-0.6-0.1-0.9-0.2c-0.2-0.2-0.4-0.4-0.6-0.6c-0.2-0.2-0.4-0.6-0.7-1.1l-1.2-2c-0.4-0.7-0.8-1.3-1.2-1.7
		c-0.3-0.4-0.7-0.7-1.1-0.8S16.4,19,15.9,19z M17.6,12.6h-2.8v4.1h2.7c0.7,0,1.3-0.1,1.8-0.2s0.9-0.3,1.1-0.6
		c0.3-0.3,0.4-0.7,0.4-1.3c0-0.4-0.1-0.8-0.3-1.1c-0.2-0.3-0.5-0.6-0.9-0.7C19.3,12.7,18.6,12.6,17.6,12.6z"/>
</g>
</svg>
